<mxfile host="app.diagrams.net" modified="2020-12-02T06:09:07.438Z" agent="5.0 (Macintosh; Intel Mac OS X 10_15_6) AppleWebKit/537.36 (KHTML, like Gecko) Chrome/86.0.4240.183 Safari/537.36" etag="EARsU3Zc7qPgvKrgN7HX" version="13.10.1" type="github">
  <diagram id="C5RBs43oDa-KdzZeNtuy" name="Page-1">
    <mxGraphModel dx="2222" dy="644" grid="1" gridSize="10" guides="1" tooltips="1" connect="1" arrows="1" fold="1" page="1" pageScale="1" pageWidth="827" pageHeight="1169" math="0" shadow="0">
      <root>
        <mxCell id="WIyWlLk6GJQsqaUBKTNV-0" />
        <mxCell id="WIyWlLk6GJQsqaUBKTNV-1" parent="WIyWlLk6GJQsqaUBKTNV-0" />
        <mxCell id="WIyWlLk6GJQsqaUBKTNV-2" value="" style="rounded=0;html=1;jettySize=auto;orthogonalLoop=1;fontSize=11;endArrow=block;endFill=0;endSize=8;strokeWidth=1;shadow=0;labelBackgroundColor=none;edgeStyle=orthogonalEdgeStyle;" parent="WIyWlLk6GJQsqaUBKTNV-1" source="WIyWlLk6GJQsqaUBKTNV-3" target="WIyWlLk6GJQsqaUBKTNV-6" edge="1">
          <mxGeometry relative="1" as="geometry" />
        </mxCell>
        <mxCell id="WIyWlLk6GJQsqaUBKTNV-3" value="校验参数" style="rounded=1;whiteSpace=wrap;html=1;fontSize=12;glass=0;strokeWidth=1;shadow=0;" parent="WIyWlLk6GJQsqaUBKTNV-1" vertex="1">
          <mxGeometry x="-683" y="140" width="120" height="40" as="geometry" />
        </mxCell>
        <mxCell id="WIyWlLk6GJQsqaUBKTNV-4" value="Yes" style="rounded=0;html=1;jettySize=auto;orthogonalLoop=1;fontSize=11;endArrow=block;endFill=0;endSize=8;strokeWidth=1;shadow=0;labelBackgroundColor=none;edgeStyle=orthogonalEdgeStyle;" parent="WIyWlLk6GJQsqaUBKTNV-1" source="WIyWlLk6GJQsqaUBKTNV-6" target="WIyWlLk6GJQsqaUBKTNV-10" edge="1">
          <mxGeometry y="20" relative="1" as="geometry">
            <mxPoint as="offset" />
          </mxGeometry>
        </mxCell>
        <mxCell id="WIyWlLk6GJQsqaUBKTNV-5" value="No" style="edgeStyle=orthogonalEdgeStyle;rounded=0;html=1;jettySize=auto;orthogonalLoop=1;fontSize=11;endArrow=block;endFill=0;endSize=8;strokeWidth=1;shadow=0;labelBackgroundColor=none;" parent="WIyWlLk6GJQsqaUBKTNV-1" source="WIyWlLk6GJQsqaUBKTNV-6" target="WIyWlLk6GJQsqaUBKTNV-7" edge="1">
          <mxGeometry y="10" relative="1" as="geometry">
            <mxPoint as="offset" />
          </mxGeometry>
        </mxCell>
        <mxCell id="WIyWlLk6GJQsqaUBKTNV-6" value="校验跨大调课规则，并且占用班级名额" style="rhombus;whiteSpace=wrap;html=1;shadow=0;fontFamily=Helvetica;fontSize=12;align=center;strokeWidth=1;spacing=6;spacingTop=-4;" parent="WIyWlLk6GJQsqaUBKTNV-1" vertex="1">
          <mxGeometry x="-683" y="230" width="120" height="100" as="geometry" />
        </mxCell>
        <mxCell id="LvaqYoD3ecBeKW2FP5gJ-37" style="edgeStyle=orthogonalEdgeStyle;rounded=0;orthogonalLoop=1;jettySize=auto;html=1;exitX=1;exitY=0.5;exitDx=0;exitDy=0;entryX=0.5;entryY=0;entryDx=0;entryDy=0;" edge="1" parent="WIyWlLk6GJQsqaUBKTNV-1" source="WIyWlLk6GJQsqaUBKTNV-7" target="LvaqYoD3ecBeKW2FP5gJ-2">
          <mxGeometry relative="1" as="geometry" />
        </mxCell>
        <mxCell id="WIyWlLk6GJQsqaUBKTNV-7" value="验证失败，或者异常" style="rounded=1;whiteSpace=wrap;html=1;fontSize=12;glass=0;strokeWidth=1;shadow=0;" parent="WIyWlLk6GJQsqaUBKTNV-1" vertex="1">
          <mxGeometry x="-503" y="260" width="120" height="40" as="geometry" />
        </mxCell>
        <mxCell id="WIyWlLk6GJQsqaUBKTNV-9" value="no" style="edgeStyle=orthogonalEdgeStyle;rounded=0;html=1;jettySize=auto;orthogonalLoop=1;fontSize=11;endArrow=block;endFill=0;endSize=8;strokeWidth=1;shadow=0;labelBackgroundColor=none;" parent="WIyWlLk6GJQsqaUBKTNV-1" source="WIyWlLk6GJQsqaUBKTNV-10" target="WIyWlLk6GJQsqaUBKTNV-12" edge="1">
          <mxGeometry y="10" relative="1" as="geometry">
            <mxPoint as="offset" />
          </mxGeometry>
        </mxCell>
        <mxCell id="LvaqYoD3ecBeKW2FP5gJ-9" value="" style="edgeStyle=orthogonalEdgeStyle;rounded=0;orthogonalLoop=1;jettySize=auto;html=1;" edge="1" parent="WIyWlLk6GJQsqaUBKTNV-1" source="WIyWlLk6GJQsqaUBKTNV-10" target="LvaqYoD3ecBeKW2FP5gJ-7">
          <mxGeometry relative="1" as="geometry" />
        </mxCell>
        <mxCell id="LvaqYoD3ecBeKW2FP5gJ-10" value="yes" style="edgeLabel;html=1;align=center;verticalAlign=middle;resizable=0;points=[];" vertex="1" connectable="0" parent="LvaqYoD3ecBeKW2FP5gJ-9">
          <mxGeometry x="-0.1371" y="3" relative="1" as="geometry">
            <mxPoint as="offset" />
          </mxGeometry>
        </mxCell>
        <mxCell id="WIyWlLk6GJQsqaUBKTNV-10" value="调用退费sdk，退费是否成功" style="rhombus;whiteSpace=wrap;html=1;shadow=0;fontFamily=Helvetica;fontSize=12;align=center;strokeWidth=1;spacing=6;spacingTop=-4;" parent="WIyWlLk6GJQsqaUBKTNV-1" vertex="1">
          <mxGeometry x="-673" y="370" width="100" height="80" as="geometry" />
        </mxCell>
        <mxCell id="LvaqYoD3ecBeKW2FP5gJ-39" style="edgeStyle=orthogonalEdgeStyle;rounded=0;orthogonalLoop=1;jettySize=auto;html=1;entryX=0.5;entryY=0;entryDx=0;entryDy=0;" edge="1" parent="WIyWlLk6GJQsqaUBKTNV-1" source="WIyWlLk6GJQsqaUBKTNV-12" target="LvaqYoD3ecBeKW2FP5gJ-2">
          <mxGeometry relative="1" as="geometry" />
        </mxCell>
        <mxCell id="WIyWlLk6GJQsqaUBKTNV-12" value="退费失败，退换班级名额" style="rounded=1;whiteSpace=wrap;html=1;fontSize=12;glass=0;strokeWidth=1;shadow=0;" parent="WIyWlLk6GJQsqaUBKTNV-1" vertex="1">
          <mxGeometry x="-503" y="390" width="120" height="40" as="geometry" />
        </mxCell>
        <mxCell id="LvaqYoD3ecBeKW2FP5gJ-0" value="&lt;font style=&quot;font-size: 36px&quot;&gt;跨大纲调课&lt;/font&gt;" style="text;html=1;align=center;verticalAlign=middle;resizable=0;points=[];autosize=1;" vertex="1" parent="WIyWlLk6GJQsqaUBKTNV-1">
          <mxGeometry x="-550" y="30" width="200" height="30" as="geometry" />
        </mxCell>
        <mxCell id="LvaqYoD3ecBeKW2FP5gJ-2" value="调课失败" style="rounded=1;whiteSpace=wrap;html=1;fontSize=12;glass=0;strokeWidth=1;shadow=0;" vertex="1" parent="WIyWlLk6GJQsqaUBKTNV-1">
          <mxGeometry x="-230" y="670" width="120" height="40" as="geometry" />
        </mxCell>
        <mxCell id="LvaqYoD3ecBeKW2FP5gJ-17" style="edgeStyle=orthogonalEdgeStyle;rounded=0;orthogonalLoop=1;jettySize=auto;html=1;exitX=0.5;exitY=1;exitDx=0;exitDy=0;" edge="1" parent="WIyWlLk6GJQsqaUBKTNV-1" source="LvaqYoD3ecBeKW2FP5gJ-7" target="LvaqYoD3ecBeKW2FP5gJ-24">
          <mxGeometry relative="1" as="geometry">
            <mxPoint x="-703" y="620" as="targetPoint" />
          </mxGeometry>
        </mxCell>
        <mxCell id="LvaqYoD3ecBeKW2FP5gJ-19" value="旧" style="edgeLabel;html=1;align=center;verticalAlign=middle;resizable=0;points=[];" vertex="1" connectable="0" parent="LvaqYoD3ecBeKW2FP5gJ-17">
          <mxGeometry x="0.2919" relative="1" as="geometry">
            <mxPoint as="offset" />
          </mxGeometry>
        </mxCell>
        <mxCell id="LvaqYoD3ecBeKW2FP5gJ-18" style="edgeStyle=orthogonalEdgeStyle;rounded=0;orthogonalLoop=1;jettySize=auto;html=1;entryX=0.5;entryY=0;entryDx=0;entryDy=0;exitX=0.5;exitY=1;exitDx=0;exitDy=0;" edge="1" parent="WIyWlLk6GJQsqaUBKTNV-1" source="LvaqYoD3ecBeKW2FP5gJ-7" target="LvaqYoD3ecBeKW2FP5gJ-25">
          <mxGeometry relative="1" as="geometry">
            <mxPoint x="-533" y="620" as="targetPoint" />
          </mxGeometry>
        </mxCell>
        <mxCell id="LvaqYoD3ecBeKW2FP5gJ-20" value="新" style="edgeLabel;html=1;align=center;verticalAlign=middle;resizable=0;points=[];" vertex="1" connectable="0" parent="LvaqYoD3ecBeKW2FP5gJ-18">
          <mxGeometry x="0.0114" relative="1" as="geometry">
            <mxPoint as="offset" />
          </mxGeometry>
        </mxCell>
        <mxCell id="LvaqYoD3ecBeKW2FP5gJ-7" value="给课订单号是否为新订单" style="rhombus;whiteSpace=wrap;html=1;shadow=0;fontFamily=Helvetica;fontSize=12;align=center;strokeWidth=1;spacing=6;spacingTop=-4;" vertex="1" parent="WIyWlLk6GJQsqaUBKTNV-1">
          <mxGeometry x="-673" y="500" width="100" height="80" as="geometry" />
        </mxCell>
        <mxCell id="LvaqYoD3ecBeKW2FP5gJ-40" style="edgeStyle=orthogonalEdgeStyle;rounded=0;orthogonalLoop=1;jettySize=auto;html=1;entryX=0.5;entryY=1;entryDx=0;entryDy=0;" edge="1" parent="WIyWlLk6GJQsqaUBKTNV-1" source="LvaqYoD3ecBeKW2FP5gJ-13" target="LvaqYoD3ecBeKW2FP5gJ-2">
          <mxGeometry relative="1" as="geometry" />
        </mxCell>
        <mxCell id="LvaqYoD3ecBeKW2FP5gJ-13" value="下单失败，退换班级名额" style="rounded=1;whiteSpace=wrap;html=1;fontSize=12;glass=0;strokeWidth=1;shadow=0;" vertex="1" parent="WIyWlLk6GJQsqaUBKTNV-1">
          <mxGeometry x="-490" y="760" width="140" height="40" as="geometry" />
        </mxCell>
        <mxCell id="LvaqYoD3ecBeKW2FP5gJ-27" style="edgeStyle=orthogonalEdgeStyle;rounded=0;orthogonalLoop=1;jettySize=auto;html=1;exitX=0.5;exitY=1;exitDx=0;exitDy=0;entryX=0.5;entryY=0;entryDx=0;entryDy=0;" edge="1" parent="WIyWlLk6GJQsqaUBKTNV-1" source="LvaqYoD3ecBeKW2FP5gJ-24" target="LvaqYoD3ecBeKW2FP5gJ-26">
          <mxGeometry relative="1" as="geometry" />
        </mxCell>
        <mxCell id="LvaqYoD3ecBeKW2FP5gJ-24" value="&lt;span&gt;旧的订单api接口&lt;/span&gt;" style="rounded=1;whiteSpace=wrap;html=1;" vertex="1" parent="WIyWlLk6GJQsqaUBKTNV-1">
          <mxGeometry x="-753" y="640" width="110" height="30" as="geometry" />
        </mxCell>
        <mxCell id="LvaqYoD3ecBeKW2FP5gJ-29" style="edgeStyle=orthogonalEdgeStyle;rounded=0;orthogonalLoop=1;jettySize=auto;html=1;entryX=0.5;entryY=0;entryDx=0;entryDy=0;" edge="1" parent="WIyWlLk6GJQsqaUBKTNV-1" source="LvaqYoD3ecBeKW2FP5gJ-25" target="LvaqYoD3ecBeKW2FP5gJ-26">
          <mxGeometry relative="1" as="geometry" />
        </mxCell>
        <mxCell id="LvaqYoD3ecBeKW2FP5gJ-25" value="新的订单sdk" style="rounded=1;whiteSpace=wrap;html=1;" vertex="1" parent="WIyWlLk6GJQsqaUBKTNV-1">
          <mxGeometry x="-600" y="640" width="110" height="30" as="geometry" />
        </mxCell>
        <mxCell id="LvaqYoD3ecBeKW2FP5gJ-30" style="edgeStyle=orthogonalEdgeStyle;rounded=0;orthogonalLoop=1;jettySize=auto;html=1;exitX=1;exitY=0.5;exitDx=0;exitDy=0;entryX=0;entryY=0.5;entryDx=0;entryDy=0;" edge="1" parent="WIyWlLk6GJQsqaUBKTNV-1" source="LvaqYoD3ecBeKW2FP5gJ-26" target="LvaqYoD3ecBeKW2FP5gJ-13">
          <mxGeometry relative="1" as="geometry" />
        </mxCell>
        <mxCell id="LvaqYoD3ecBeKW2FP5gJ-32" value="no" style="edgeLabel;html=1;align=center;verticalAlign=middle;resizable=0;points=[];" vertex="1" connectable="0" parent="LvaqYoD3ecBeKW2FP5gJ-30">
          <mxGeometry x="-0.1796" y="-2" relative="1" as="geometry">
            <mxPoint as="offset" />
          </mxGeometry>
        </mxCell>
        <mxCell id="LvaqYoD3ecBeKW2FP5gJ-46" style="edgeStyle=orthogonalEdgeStyle;rounded=0;orthogonalLoop=1;jettySize=auto;html=1;exitX=0.5;exitY=1;exitDx=0;exitDy=0;" edge="1" parent="WIyWlLk6GJQsqaUBKTNV-1" source="LvaqYoD3ecBeKW2FP5gJ-26" target="LvaqYoD3ecBeKW2FP5gJ-45">
          <mxGeometry relative="1" as="geometry" />
        </mxCell>
        <mxCell id="LvaqYoD3ecBeKW2FP5gJ-26" value="下单是否成功" style="rhombus;whiteSpace=wrap;html=1;shadow=0;fontFamily=Helvetica;fontSize=12;align=center;strokeWidth=1;spacing=6;spacingTop=-4;" vertex="1" parent="WIyWlLk6GJQsqaUBKTNV-1">
          <mxGeometry x="-673" y="740" width="100" height="80" as="geometry" />
        </mxCell>
        <mxCell id="LvaqYoD3ecBeKW2FP5gJ-47" style="edgeStyle=orthogonalEdgeStyle;rounded=0;orthogonalLoop=1;jettySize=auto;html=1;entryX=0.5;entryY=1;entryDx=0;entryDy=0;" edge="1" parent="WIyWlLk6GJQsqaUBKTNV-1" source="LvaqYoD3ecBeKW2FP5gJ-41" target="LvaqYoD3ecBeKW2FP5gJ-2">
          <mxGeometry relative="1" as="geometry" />
        </mxCell>
        <mxCell id="LvaqYoD3ecBeKW2FP5gJ-41" value="支付失败，退换班级名额" style="rounded=1;whiteSpace=wrap;html=1;fontSize=12;glass=0;strokeWidth=1;shadow=0;" vertex="1" parent="WIyWlLk6GJQsqaUBKTNV-1">
          <mxGeometry x="-490" y="880" width="140" height="40" as="geometry" />
        </mxCell>
        <mxCell id="LvaqYoD3ecBeKW2FP5gJ-42" style="edgeStyle=orthogonalEdgeStyle;rounded=0;orthogonalLoop=1;jettySize=auto;html=1;exitX=1;exitY=0.5;exitDx=0;exitDy=0;entryX=0;entryY=0.5;entryDx=0;entryDy=0;" edge="1" parent="WIyWlLk6GJQsqaUBKTNV-1" source="LvaqYoD3ecBeKW2FP5gJ-45" target="LvaqYoD3ecBeKW2FP5gJ-41">
          <mxGeometry relative="1" as="geometry" />
        </mxCell>
        <mxCell id="LvaqYoD3ecBeKW2FP5gJ-43" value="no" style="edgeLabel;html=1;align=center;verticalAlign=middle;resizable=0;points=[];" vertex="1" connectable="0" parent="LvaqYoD3ecBeKW2FP5gJ-42">
          <mxGeometry x="-0.1796" y="-2" relative="1" as="geometry">
            <mxPoint as="offset" />
          </mxGeometry>
        </mxCell>
        <mxCell id="LvaqYoD3ecBeKW2FP5gJ-50" style="edgeStyle=orthogonalEdgeStyle;rounded=0;orthogonalLoop=1;jettySize=auto;html=1;exitX=0.5;exitY=1;exitDx=0;exitDy=0;" edge="1" parent="WIyWlLk6GJQsqaUBKTNV-1" source="LvaqYoD3ecBeKW2FP5gJ-45" target="LvaqYoD3ecBeKW2FP5gJ-49">
          <mxGeometry relative="1" as="geometry" />
        </mxCell>
        <mxCell id="LvaqYoD3ecBeKW2FP5gJ-51" value="yes" style="edgeLabel;html=1;align=center;verticalAlign=middle;resizable=0;points=[];" vertex="1" connectable="0" parent="LvaqYoD3ecBeKW2FP5gJ-50">
          <mxGeometry x="-0.1059" y="-1" relative="1" as="geometry">
            <mxPoint as="offset" />
          </mxGeometry>
        </mxCell>
        <mxCell id="LvaqYoD3ecBeKW2FP5gJ-45" value="是否支付成功" style="rhombus;whiteSpace=wrap;html=1;shadow=0;fontFamily=Helvetica;fontSize=12;align=center;strokeWidth=1;spacing=6;spacingTop=-4;" vertex="1" parent="WIyWlLk6GJQsqaUBKTNV-1">
          <mxGeometry x="-673" y="860" width="100" height="80" as="geometry" />
        </mxCell>
        <mxCell id="LvaqYoD3ecBeKW2FP5gJ-48" value="调课成功" style="rounded=1;whiteSpace=wrap;html=1;fontSize=12;glass=0;strokeWidth=1;shadow=0;" vertex="1" parent="WIyWlLk6GJQsqaUBKTNV-1">
          <mxGeometry x="-693" y="1090" width="140" height="40" as="geometry" />
        </mxCell>
        <mxCell id="LvaqYoD3ecBeKW2FP5gJ-52" value="" style="edgeStyle=orthogonalEdgeStyle;rounded=0;orthogonalLoop=1;jettySize=auto;html=1;" edge="1" parent="WIyWlLk6GJQsqaUBKTNV-1" source="LvaqYoD3ecBeKW2FP5gJ-49" target="LvaqYoD3ecBeKW2FP5gJ-48">
          <mxGeometry relative="1" as="geometry" />
        </mxCell>
        <mxCell id="LvaqYoD3ecBeKW2FP5gJ-56" style="edgeStyle=orthogonalEdgeStyle;rounded=0;orthogonalLoop=1;jettySize=auto;html=1;" edge="1" parent="WIyWlLk6GJQsqaUBKTNV-1" source="LvaqYoD3ecBeKW2FP5gJ-49" target="LvaqYoD3ecBeKW2FP5gJ-55">
          <mxGeometry relative="1" as="geometry" />
        </mxCell>
        <mxCell id="LvaqYoD3ecBeKW2FP5gJ-49" value="添加跨大纲调课日志（redis日志缓存）" style="rounded=1;whiteSpace=wrap;html=1;fontSize=12;glass=0;strokeWidth=1;shadow=0;" vertex="1" parent="WIyWlLk6GJQsqaUBKTNV-1">
          <mxGeometry x="-693" y="1000" width="140" height="40" as="geometry" />
        </mxCell>
        <mxCell id="LvaqYoD3ecBeKW2FP5gJ-53" value="&lt;pre style=&quot;background-color: #fdf6e3 ; color: #657b83 ; font-family: &amp;#34;menlo&amp;#34; ; font-size: 9.8pt&quot;&gt;&lt;br&gt;&lt;/pre&gt;" style="text;html=1;align=center;verticalAlign=middle;resizable=0;points=[];autosize=1;" vertex="1" parent="WIyWlLk6GJQsqaUBKTNV-1">
          <mxGeometry x="-365" y="995" width="20" height="50" as="geometry" />
        </mxCell>
        <mxCell id="LvaqYoD3ecBeKW2FP5gJ-55" value="&lt;div style=&quot;color: rgb(51 , 51 , 51) ; background-color: rgb(253 , 246 , 227) ; font-family: &amp;#34;menlo&amp;#34; , &amp;#34;monaco&amp;#34; , &amp;#34;courier new&amp;#34; , monospace ; line-height: 18px&quot;&gt;&lt;div&gt;&lt;span style=&quot;color: #cb4b16&quot;&gt;用户跨大纲调课成功的临时日志数据&lt;/span&gt;&lt;/div&gt;&lt;div&gt;&lt;span style=&quot;color: #657b83&quot;&gt;key:&lt;/span&gt;&lt;span style=&quot;color: #cb4b16&quot;&gt;stu_across_cou_stu_data_&lt;/span&gt;&lt;span style=&quot;color: #859900&quot;&gt;%&lt;/span&gt;&lt;span style=&quot;color: #cb4b16&quot;&gt;d&lt;/span&gt;&lt;/div&gt;&lt;/div&gt;" style="text;html=1;align=left;verticalAlign=middle;resizable=0;points=[];autosize=1;" vertex="1" parent="WIyWlLk6GJQsqaUBKTNV-1">
          <mxGeometry x="-503" y="1000" width="230" height="40" as="geometry" />
        </mxCell>
      </root>
    </mxGraphModel>
  </diagram>
</mxfile>
